PathFileType   4   (X/Y/Z)
DataRate	CameraRate	NumFrames	NumMarkers	Units	OrigDataRate	OrigDataStartFrame	OrigNumFrames
120.0	120.0	4	37	mm	120.0	1	173
Frame#	Time	midhip	hip_r	hip_l	knee_r	knee_l	ankle_r	ankle_l	midasis	asis_r	asis_l	psis_r	psis_l	epicondLat_r	epicondLat_l	epicondMed_r	epicondMed_l	malleolusLat_r	malleolusLat_l	malleolusMedv_r	malleolusMedv_l	neck	subclavicle_r	subclavicle_l	sternalnotch	xyphoidprocess	thighwand_r	thighwand_l	upperleg1_r	upperleg1_l	upperleg2_r	upperleg2_l	shankwand_r	shankwand_l	lowerleg1_r	lowerleg1_l	toe_r	toe_l
 	 	X1	Y1	Z1	X2	Y2	Z2	X3	Y3	Z3	X4	Y4	Z4	X5	Y5	Z5	X6	Y6	Z6	X7	Y7	Z7	X8	Y8	Z8	X9	Y9	Z9	X10	Y10	Z10	X11	Y11	Z11	X12	Y12	Z12	X13	Y13	Z13	X14	Y14	Z14	X15	Y15	Z15	X16	Y16	Z16	X17	Y17	Z17	X18	Y18	Z18	X19	Y19	Z19	X20	Y20	Z20	X21	Y21	Z21	X22	Y22	Z22	X23	Y23	Z23	X24	Y24	Z24	X25	Y25	Z25	X26	Y26	Z26	X27	Y27	Z27	X28	Y28	Z28	X29	Y29	Z29	X30	Y30	Z30	X31	Y31	Z31	X32	Y32	Z32	X33	Y33	Z33	X34	Y34	Z34	X35	Y35	Z35	X36	Y36	Z36	X37	Y37	Z37

	1	0.23333	-1540.931	605.544	261.935	-1528.541	619.263	315.424	-1546.841	617.428	199.428	-1419.187	345.374	281.468	-1562.236	317.835	196.129	-1439.220	54.580	267.474	-1778.584	129.986	226.464	-1500.021	684.164	250.441	-1486.002	685.570	339.306	-1514.041	682.758	161.577	-1631.167	691.013	317.456	-1639.311	686.755	232.673	-1418.216	340.097	327.154	-1574.644	318.983	149.775	-1426.417	347.526	238.272	-1542.889	310.621	233.067	-1437.182	52.832	300.867	-1791.633	140.519	198.626	-1435.611	57.330	239.722	-1776.177	134.173	261.508	-1565.229	1012.386	282.984	-1477.313	933.156	310.053	-1489.439	940.413	220.864	-1495.523	950.526	276.017	-1469.352	812.365	256.035	-1338.813	474.527	269.475	-1518.493	397.990	76.886	-1416.409	492.182	321.999	-1497.090	448.055	156.337	-1400.112	406.428	313.807	-1501.138	363.592	172.739	-1394.019	123.501	365.512	-1636.299	127.937	215.663	-1414.435	194.456	313.364	-1635.076	211.251	201.328	-1347.717	41.069	261.459	-1786.736	45.040	247.379
	2	0.24167	-1536.618	606.816	261.877	-1524.384	620.384	315.572	-1542.425	618.787	199.531	-1417.537	345.402	281.882	-1553.044	318.765	194.645	-1439.091	54.567	267.734	-1770.123	132.876	225.690	-1495.525	685.304	250.758	-1481.695	686.528	339.715	-1509.355	684.080	161.801	-1626.682	692.460	317.232	-1634.692	688.294	232.595	-1416.771	340.102	327.569	-1565.060	319.946	148.188	-1424.515	347.690	238.725	-1533.406	311.519	231.644	-1437.193	52.801	301.133	-1783.047	143.303	197.753	-1435.508	57.632	239.933	-1766.137	137.571	260.790	-1560.211	1013.696	283.578	-1472.319	934.290	310.356	-1484.740	941.556	221.284	-1490.613	951.683	276.436	-1464.763	813.479	256.357	-1335.922	473.709	270.213	-1509.441	400.003	75.907	-1413.462	492.224	322.546	-1489.463	450.040	155.868	-1397.902	406.315	314.361	-1492.114	365.527	171.880	-1393.926	123.315	365.904	-1627.770	129.599	215.232	-1413.885	194.462	313.902	-1625.895	212.781	200.495	-1347.786	41.103	261.590	-1779.677	47.287	246.359
	3	0.25000	-1532.445	608.090	261.829	-1520.368	621.482	315.726	-1538.070	620.167	199.630	-1415.980	345.455	282.269	-1543.921	319.733	193.153	-1438.958	54.544	267.962	-1761.602	135.822	224.898	-1491.137	686.450	251.127	-1477.558	687.459	340.183	-1504.715	685.441	162.072	-1622.323	693.872	316.971	-1630.172	689.819	232.473	-1415.496	340.101	327.953	-1555.438	320.962	146.571	-1422.729	347.775	238.913	-1523.961	312.470	230.168	-1437.216	52.764	301.369	-1774.392	146.120	196.851	-1435.485	57.856	240.109	-1760.563	140.539	260.353	-1556.250	1014.803	284.137	-1467.388	935.371	310.723	-1480.089	942.705	221.658	-1485.796	952.809	276.830	-1459.359	814.680	256.510	-1333.125	472.833	271.149	-1500.169	402.157	74.960	-1411.086	492.081	323.068	-1481.879	452.116	155.499	-1396.214	406.027	314.861	-1483.070	367.583	171.091	-1393.899	123.151	366.282	-1619.220	131.367	214.863	-1413.436	194.431	314.341	-1616.644	214.419	199.592	-1347.853	41.136	261.715	-1771.371	49.672	245.096
	4	0.25833	-1528.368	609.339	261.802	-1516.472	622.545	315.886	-1533.759	621.541	199.725	-1414.514	345.527	282.616	-1534.908	320.755	191.661	-1438.834	54.512	268.156	-1752.991	138.760	224.100	-1486.844	687.586	251.544	-1473.576	688.356	340.700	-1500.112	686.816	162.388	-1618.101	695.227	316.694	-1625.753	691.302	232.307	-1414.375	340.092	328.294	-1545.846	322.049	144.942	-1421.581	348.014	239.231	-1514.599	313.430	228.562	-1437.255	52.719	301.571	-1765.661	148.925	195.950	-1435.523	58.026	240.255	-1748.612	143.759	258.614	-1550.615	1016.072	284.931	-1462.609	936.384	311.059	-1475.507	943.806	222.065	-1481.079	953.906	277.199	-1455.552	815.642	256.837	-1330.425	471.899	272.252	-1490.765	404.454	74.036	-1408.392	491.964	323.750	-1474.273	454.239	155.271	-1394.720	405.738	315.467	-1474.041	369.749	170.318	-1393.920	123.002	366.631	-1610.636	133.209	214.464	-1412.981	194.374	314.679	-1607.309	216.182	198.600	-1347.921	41.167	261.828	-1761.792	52.150	243.523
